# xmcd
#
# Track frame offsets:
#	150
#	10893
#	21249
#	29853
#	40140
#	49243
#	61405
#	73085
#	86838
#	98187
#	107213
#	117114
#	130075
#	139631
#	150227
#	159921
#	169425
#	177979
#	187963
#	197389
#	208813
#	217379
#	228209
#	237179
#	245636
#	256157
#	267199
#	275203
#	285441
#	294203
#	304750
#
# Disc length: 4190 seconds
# Revision: 5
# Processed by: cddbd v1.5.2PL0 Copyright (c) Steve Scherf et al.
# Submitted via: dBpowerAMP V12.0
#
DISCID=c7105c1f
DTITLE=Johnny Cash - Hymns by Johhny Cash
DYEAR=1959
DGENRE=Country
TTITLE0=Run Softly, Blue River
TTITLE1=Frankie's Man, Johnny
TTITLE2=That's All Over
TTITLE3=The Troubadour
TTITLE4=One More Ride
TTITLE5=That's Enough
TTITLE6=I Still Miss Someone
TTITLE7=Don't Take Your Guns to Town
TTITLE8=I'd Rather Die Young
TTITLE9=Pickin' Time
TTITLE10=Shepherd of My Heart
TTITLE11=Suppertime
TTITLE12=Oh What a Dream
TTITLE13=Mama's Baby
TTITLE14=Fool's Hall of Fame
TTITLE15=I'll Remember You
TTITLE16=Cold Shoulder
TTITLE17=Walking the Blues
TTITLE18=It Was Jesus
TTITLE19=I Saw a Man
TTITLE20=Are All the Children In
TTITLE21=The Old Account
TTITLE22=Lead Me Gently Home
TTITLE23=Swing Low, Sweet Chariot
TTITLE24=Snow in His Hair
TTITLE25=Lead Me Father
TTITLE26=I Call Him
TTITLE27=These Things Shall Pass
TTITLE28=He'll Be a Friend
TTITLE29=God Will
TTITLE30=It Was Jesus [Mono EP Version]
EXTD=
EXTT0=
EXTT1=
EXTT2=
EXTT3=
EXTT4=
EXTT5=
EXTT6=
EXTT7=
EXTT8=
EXTT9=
EXTT10=
EXTT11=
EXTT12=
EXTT13=
EXTT14=
EXTT15=
EXTT16=
EXTT17=
EXTT18=
EXTT19=
EXTT20=
EXTT21=
EXTT22=
EXTT23=
EXTT24=
EXTT25=
EXTT26=
EXTT27=
EXTT28=
EXTT29=
EXTT30=
PLAYORDER=
